<?xml version="1.0" encoding="UTF-8" standalone="no"?><svg xmlns:svg="http://www.w3.org/2000/svg" xmlns="http://www.w3.org/2000/svg" version="1.1" style="overflow:visible" viewBox="-150 -150 300 300" height="1200px" width="1200px"><rect fill-opacity="0" fill="rgb(0,0,0)" height="300" width="300" y="-150" x="-150" /><svg version="1.1" y="-250" x="-250" viewBox="-250 -250 500 500" height="500px" width="500px" style="overflow:visible"><g transform="rotate(0,0,0)" stroke-linejoin="round" fill="#fff"><path stroke-linecap="butt" stroke-linejoin="round" stroke="none" fill="rgb(0,0,0)" d="m-107.46 5.92v63.234c0 10.824 8.715 19.537 19.539 19.537h175.83c10.824 0 19.537-8.7131 19.537-19.537v-63.176l-214.91-0.0547z" /><path stroke-linecap="butt" stroke-linejoin="round" stroke="none" fill="rgb(0,0,0)" d="m-87.92-60.82c-10.824 0.0007-19.539 8.7128-19.539 19.537v47.205c29.232 19.659 67.599 30.605 107.46 30.658c39.849-0.0402 78.215-10.97 107.46-30.611v-47.252c0-10.824-8.7128-19.537-19.537-19.537l-61.453-0.0005l-13.387-27.875l-79.412 0.002l-13.385 27.873z" /><path stroke-linecap="butt" stroke-linejoin="miter" stroke-width="0" stroke-opacity="0" stroke="rgb(0,0,0)" fill="none" d="m13.08-88.69h-79.41l-13.39 27.87h-8.2c-10.82 0-19.54 8.71-19.54 19.54v110.43c0 10.83 8.72 19.54 19.54 19.54h175.84c10.82 0 19.54-8.71 19.54-19.54v-110.43c0-10.83-8.72-19.54-19.54-19.54h-61.45l-13.39-27.87z" /></g></svg></svg>