<!--?xml version="1.0" encoding="utf-8"?-->
<!-- Generator: Adobe Illustrator 22.1.0, SVG Export Plug-In . SVG Version: 6.00 Build 0)  -->
<svg version="1.1" id="_x33_" xmlns="http://www.w3.org/2000/svg" xmlns:xlink="http://www.w3.org/1999/xlink" x="0px" y="0px" viewBox="0 0 410 800" style="enable-background:new 0 0 410 800;" xml:space="preserve">
<style type="text/css">
	.st0{fill:#040000;}
</style>
<g>
	<path class="st0" d="M385.03,716.319c1.781-3.353,2.481-5.968,1.557-7.265c-5.41-7.608-106.842-152.132-106.842-152.132
		s-6.796-9.151-6.453-14.978c0.239-4.24-6.475-62.773-10.171-94.516c5.447,0.186,17.601,0.7,20.081-3.22
		c2.958-4.672,3.383-8.57,3.383-8.57l17.444-22.898c0,0-24.493-57.989-26.803-64.959c-2.324-6.968-9.552-79.446-9.776-83.313
		c-0.201-3.859-2.906-64.341-7.302-73.774c-4.389-9.43-49.881-62.393-49.881-62.393s-3.749-9.463-6.335-9.322
		c-2.57,0.146,0.805-9.075,0.805-9.075s9.002-12.102,13.935-27.866c4.926-15.749,9.791-44.4-4.524-58.454
		c-14.307-14.039-27.079-11.393-38.048-11.439C165.148,12.108,161.347,2,161.347,2s-1.557,6.538-0.738,9.724
		c-6.467-0.299-10.648-5.872-10.648-5.872s-2.294,5.283-0.819,8.427c1.453,3.152-6.371,1.644-10.015,5.716
		c-3.644,4.079-8.078,5.603-8.078,5.603s4.106,4.292,6.043,4.189c1.93-0.104-0.119,9.671-0.119,9.671s-8.853,14.687-7.399,17.829
		c1.475,3.144-0.783,9.072-0.783,9.072s-8.375,12.072-10.186,14.117c-1.819,2.038,0.238,4.497,5.425,4.858
		c5.186,0.354,0.991,6.393,0.991,6.393l1.504,3.786c0,0-2.324,4.65-0.253,7.109c-0.38,4.534-1.9,12.362,2.653,12.757
		c4.538,0.399,16.14,0.399,18.898,3.469c2.735,3.078,5,8.756,3.204,11.435c-1.781,2.678-8.51,9.504-8.51,9.504l2.467,21.144
		l6.178-4.852c0,0-10.686,28.328-13.726,31.722c-3.032,3.387-6.013,42.899-8.048,64.304c-0.909,9.441-6.81,42.665-13.383,77.352
		c-17.652,21.77-46.17,56.636-49.419,58.805c-0.633,0.432-0.41,1.55,0.447,3.152c-5.328,1.788-11.148,4.382-14.724,7.951
		c-7.925,7.929-15.85,12.675-7.925,17.437c0,11.088,6.352,14.262,6.352,14.262c6.334,4.754,6.334,4.754,6.334,4.754l17.444,6.341
		c0,0,11.074-1.587,15.828-12.682l3.442-7.556c1.17,1.186,2.377,2.399,3.421,3.443c0.194,0.238,0.462,0.484,0.723,0.723
		c3.972,3.95,6.692,6.564,6.692,6.564l1.475-1.981c6.297,2.652,14.203,5.09,19.166,6.505c-3.457,16.878-8.711,42.005-12.459,54.904
		c-5.686,19.508-34.732,161.037-36.528,174.353c-1.811,13.346-14.859,32.012-14.859,32.012s-13.177,34.785-20.917,47.147
		c-7.734,12.362,8.234,11.013,8.234,11.013s-18.145,10.313-28.328,11.17c-10.186,0.857-18.521,5.961-19.359,13.353
		c-0.838,7.392,25.932,12.444,39.386,15.715c13.435,3.249,39.129-4.769,39.129-4.769s0,0,1.818,4.226
		c1.825,4.255,21.922-0.373,30.395-4.017c8.472-3.651,0.946-23.503,6.646-25.455c5.679-1.938,26.782-98.883,26.424-103.242
		c-0.343-3.905,30.522-109.927,48.287-147.9c13.353,25.477,36.17,68.935,37.869,76.469c2.34,10.357,94.948,155.85,103.107,166.543
		c-2.123,11.572-16.93,15.12-22.846,16.245c-5.895,1.126-13.338,3.629-9.299,9.702c4.039,6.08,17.221,5.358,39.233,3.681
		c22.012-1.676,30.283-18.74,30.283-18.74l13.025,2.183c0,0,18.227-12.116,24.457-19.068
		C409.591,741.551,392.765,722.072,385.03,716.319z" style="fill: rgb(4, 0, 0); opacity: 1;"></path>
</g>
</svg>
